<svg width="146" height="27" viewBox="0 0 146 27" fill="none" xmlns="http://www.w3.org/2000/svg">
<path fill-rule="evenodd" clip-rule="evenodd" d="M11.2835 13.3849C10.864 13.5085 10.4717 13.7403 10.1365 14.0597C9.80035 14.3801 9.62158 14.5523 9.29596 15.2714C8.97064 15.9905 8.79683 17.2828 9.05119 18.1683C9.4741 18.0732 9.88896 17.8755 10.2586 17.5803C10.6298 17.2841 10.8516 17.135 11.2051 16.4011C11.5586 15.6674 11.663 14.3073 11.2835 13.3849ZM4.34992 5.48192C3.41301 5.29912 2.51792 4.75197 1.89332 3.94983C1.2684 3.14801 1.03758 2.24487 1.21976 1.43158C2.19818 1.50811 3.19396 1.96789 3.84025 2.80534C4.48655 3.6428 4.62504 4.64477 4.34992 5.48192ZM0.871826 6.11768C1.25198 5.89584 1.69162 5.75611 2.1576 5.7177C2.62419 5.67928 2.87608 5.64396 3.5989 5.93426C4.32172 6.22457 5.26421 7.12058 5.55885 8.03518C5.16506 8.23099 4.7214 8.33138 4.26193 8.33292C3.8037 8.33478 3.56203 8.33231 2.86245 8.03983C2.16317 7.74767 1.22472 6.93592 0.871826 6.11768ZM2.6747 9.01609C3.06972 8.82214 3.51153 8.71277 3.96945 8.71091C4.42985 8.70874 4.6774 8.69418 5.35158 9.048C6.02545 9.40182 6.84803 10.388 7.03238 11.3388C6.62744 11.5074 6.18408 11.5762 5.737 11.5436C5.29054 11.5114 5.05725 11.4903 4.40909 11.1399C3.76094 10.7898 2.93278 9.88515 2.6747 9.01609ZM4.11817 12.1212C4.52218 11.9507 4.96554 11.8761 5.41168 11.9083C5.85845 11.9411 6.10135 11.9449 6.7145 12.351C7.32795 12.7575 8.00677 13.8097 8.06781 14.7763C7.65419 14.9189 7.21424 14.9591 6.78483 14.8966C6.35541 14.834 6.13605 14.7962 5.55049 14.3959C4.96492 13.9953 4.26843 13.0227 4.11817 12.1212ZM5.14121 15.365C5.55575 15.2222 5.99384 15.176 6.42326 15.2386C6.85299 15.3012 7.08784 15.3244 7.62724 15.7724C8.16665 16.2201 8.67321 17.3141 8.59389 18.2811C8.17191 18.3926 7.74125 18.4047 7.33507 18.3155C6.92951 18.2262 6.72596 18.1785 6.21847 17.7411C5.71129 17.3036 5.16692 16.2812 5.14121 15.365ZM6.56609 2.96304C6.1754 3.16815 5.84606 3.46465 5.60595 3.82932C5.36614 4.19336 5.23602 4.387 5.15577 5.11447C5.07553 5.84163 5.38132 7.06419 5.99137 7.83287C6.39569 7.65843 6.74951 7.3861 7.02029 7.03259C7.29139 6.67939 7.45467 6.49133 7.54917 5.73845C7.64366 4.98558 7.27621 3.71747 6.56609 2.96304ZM8.5499 6.24223C8.14713 6.42038 7.79733 6.69922 7.52562 7.05304C7.25514 7.40562 7.10859 7.59771 6.9543 8.33416C6.80001 9.07062 6.967 10.3397 7.47605 11.166C7.88749 11.016 8.26269 10.766 8.56508 10.4289C8.8684 10.0909 9.0484 9.90993 9.22036 9.15148C9.39231 8.39334 9.16366 7.06915 8.5499 6.24223ZM10.1396 9.73829C9.72754 9.89103 9.35792 10.1497 9.0546 10.4887C8.7519 10.827 8.59017 11.0089 8.35502 11.7429C8.11986 12.4765 8.12916 13.7707 8.51954 14.6341C8.93997 14.5145 9.33313 14.2878 9.66805 13.9693C10.0039 13.6501 10.2062 13.4859 10.4634 12.7327C10.7208 11.9796 10.6462 10.6238 10.1396 9.73829Z" fill="#F5BB2C"/>
<path fill-rule="evenodd" clip-rule="evenodd" d="M0 15.3042C3.06135 14.8939 6.87538 17.7461 7.5461 21.654C5.68732 19.2386 3.55507 16.529 0 15.3042Z" fill="#5EB022"/>
<path fill-rule="evenodd" clip-rule="evenodd" d="M13.0665 2.05253C16.9979 8.30072 14.5836 19.4244 6.75317 24.7622C11.1714 19.3865 14.9916 12.1082 13.0665 2.05253Z" fill="#5EB022"/>
<path d="M32.635 11.5869C32.635 12.3056 32.4701 12.9655 32.1401 13.5664C31.8102 14.1556 31.3035 14.6328 30.6201 14.9981C29.9367 15.3633 29.0883 15.546 28.075 15.546H26.2014V20H23.1791V7.59239H28.075C29.0647 7.59239 29.9013 7.76325 30.5848 8.10496C31.2682 8.44667 31.7807 8.91799 32.1225 9.51893C32.4642 10.1199 32.635 10.8092 32.635 11.5869ZM27.8452 13.1422C28.4226 13.1422 28.8526 13.0067 29.1354 12.7357C29.4182 12.4647 29.5596 12.0818 29.5596 11.5869C29.5596 11.092 29.4182 10.709 29.1354 10.438C28.8526 10.167 28.4226 10.0315 27.8452 10.0315H26.2014V13.1422H27.8452ZM41.9323 17.8083H37.3015L36.5592 20H33.3954L37.8848 7.59239H41.3844L45.8737 20H42.6746L41.9323 17.8083ZM41.1546 15.4753L39.6169 10.9329L38.0969 15.4753H41.1546ZM51.8885 7.59239C53.1964 7.59239 54.3394 7.85162 55.3174 8.37008C56.2954 8.88853 57.0495 9.61909 57.5798 10.5617C58.1218 11.4926 58.3928 12.5708 58.3928 13.7962C58.3928 15.0099 58.1218 16.088 57.5798 17.0307C57.0495 17.9733 56.2895 18.7039 55.2997 19.2223C54.3217 19.7408 53.1847 20 51.8885 20H47.2401V7.59239H51.8885ZM51.6941 17.3842C52.8371 17.3842 53.7267 17.0719 54.363 16.4474C54.9993 15.8229 55.3174 14.9392 55.3174 13.7962C55.3174 12.6532 54.9993 11.7636 54.363 11.1273C53.7267 10.491 52.8371 10.1729 51.6941 10.1729H50.2624V17.3842H51.6941ZM61.6018 9.11241C61.0716 9.11241 60.6356 8.95923 60.2939 8.65287C59.964 8.33473 59.799 7.94589 59.799 7.48635C59.799 7.01502 59.964 6.62618 60.2939 6.31982C60.6356 6.00167 61.0716 5.8426 61.6018 5.8426C62.1203 5.8426 62.5445 6.00167 62.8744 6.31982C63.2161 6.62618 63.387 7.01502 63.387 7.48635C63.387 7.94589 63.2161 8.33473 62.8744 8.65287C62.5445 8.95923 62.1203 9.11241 61.6018 9.11241ZM63.1042 10.1375V20H60.0818V10.1375H63.1042ZM80.6876 7.59239L76.2866 20H72.5042L68.1032 7.59239H71.32L74.3954 16.96L77.4885 7.59239H80.6876ZM91.2476 14.9097C91.2476 15.1925 91.2299 15.4871 91.1946 15.7934H84.3545C84.4016 16.4062 84.5961 16.8775 84.9378 17.2074C85.2913 17.5255 85.7213 17.6846 86.228 17.6846C86.9821 17.6846 87.5065 17.3665 87.8011 16.7302H91.0178C90.8529 17.3783 90.5524 17.9615 90.1164 18.48C89.6923 18.9984 89.1561 19.405 88.508 19.6995C87.86 19.9941 87.1353 20.1414 86.3341 20.1414C85.3679 20.1414 84.5077 19.9352 83.7536 19.5228C82.9994 19.1104 82.4103 18.5212 81.9861 17.7553C81.5619 16.9894 81.3498 16.0939 81.3498 15.0688C81.3498 14.0436 81.556 13.1481 81.9684 12.3822C82.3926 11.6163 82.9818 11.0272 83.7359 10.6148C84.49 10.2024 85.3561 9.99615 86.3341 9.99615C87.2885 9.99615 88.1369 10.1965 88.8792 10.5971C89.6216 10.9977 90.1989 11.5692 90.6113 12.3115C91.0355 13.0539 91.2476 13.9199 91.2476 14.9097ZM88.1546 14.1143C88.1546 13.5959 87.9778 13.1835 87.6243 12.8771C87.2708 12.5708 86.829 12.4176 86.2987 12.4176C85.792 12.4176 85.362 12.5649 85.0085 12.8594C84.6668 13.154 84.4547 13.5723 84.3722 14.1143H88.1546ZM98.8514 10.0315C100.006 10.0315 100.925 10.4086 101.609 11.1627C102.304 11.905 102.651 12.9301 102.651 14.2381V20H99.6468V14.6446C99.6468 13.9847 99.476 13.4722 99.1342 13.1069C98.7925 12.7416 98.333 12.559 97.7556 12.559C97.1782 12.559 96.7187 12.7416 96.377 13.1069C96.0353 13.4722 95.8644 13.9847 95.8644 14.6446V20H92.8421V10.1375H95.8644V11.4455C96.1708 11.0095 96.5832 10.6678 97.1017 10.4203C97.6201 10.1611 98.2034 10.0315 98.8514 10.0315ZM104.151 15.0511C104.151 14.0378 104.339 13.1481 104.716 12.3822C105.105 11.6163 105.63 11.0272 106.289 10.6148C106.949 10.2024 107.686 9.99615 108.499 9.99615C109.147 9.99615 109.736 10.1317 110.266 10.4027C110.808 10.6737 111.232 11.039 111.539 11.4985V6.92076H114.561V20H111.539V18.586C111.256 19.0574 110.849 19.4344 110.319 19.7172C109.801 20 109.194 20.1414 108.499 20.1414C107.686 20.1414 106.949 19.9352 106.289 19.5228C105.63 19.0986 105.105 18.5035 104.716 17.7376C104.339 16.96 104.151 16.0644 104.151 15.0511ZM111.539 15.0688C111.539 14.3147 111.327 13.7196 110.903 13.2836C110.49 12.8477 109.983 12.6297 109.383 12.6297C108.782 12.6297 108.269 12.8477 107.845 13.2836C107.432 13.7078 107.226 14.297 107.226 15.0511C107.226 15.8052 107.432 16.4062 107.845 16.8539C108.269 17.2899 108.782 17.5079 109.383 17.5079C109.983 17.5079 110.49 17.2899 110.903 16.8539C111.327 16.4179 111.539 15.8229 111.539 15.0688ZM118.268 9.11241C117.738 9.11241 117.302 8.95923 116.96 8.65287C116.63 8.33473 116.465 7.94589 116.465 7.48635C116.465 7.01502 116.63 6.62618 116.96 6.31982C117.302 6.00167 117.738 5.8426 118.268 5.8426C118.786 5.8426 119.21 6.00167 119.54 6.31982C119.882 6.62618 120.053 7.01502 120.053 7.48635C120.053 7.94589 119.882 8.33473 119.54 8.65287C119.21 8.95923 118.786 9.11241 118.268 9.11241ZM119.77 10.1375V20H116.748V10.1375H119.77ZM127.97 10.0315C129.124 10.0315 130.044 10.4086 130.727 11.1627C131.422 11.905 131.77 12.9301 131.77 14.2381V20H128.765V14.6446C128.765 13.9847 128.594 13.4722 128.253 13.1069C127.911 12.7416 127.451 12.559 126.874 12.559C126.297 12.559 125.837 12.7416 125.495 13.1069C125.154 13.4722 124.983 13.9847 124.983 14.6446V20H121.96V10.1375H124.983V11.4455C125.289 11.0095 125.701 10.6678 126.22 10.4203C126.738 10.1611 127.322 10.0315 127.97 10.0315ZM137.617 9.99615C138.312 9.99615 138.919 10.1375 139.438 10.4203C139.968 10.7031 140.374 11.0743 140.657 11.5338V10.1375H143.679V19.9823C143.679 20.8896 143.497 21.7085 143.132 22.4391C142.778 23.1814 142.23 23.7706 141.488 24.2066C140.757 24.6425 139.844 24.8605 138.748 24.8605C137.287 24.8605 136.103 24.5129 135.196 23.8177C134.288 23.1343 133.77 22.2034 133.64 21.0251H136.627C136.722 21.4022 136.945 21.6968 137.299 21.9089C137.652 22.1327 138.088 22.2447 138.607 22.2447C139.231 22.2447 139.726 22.062 140.092 21.6968C140.469 21.3433 140.657 20.7718 140.657 19.9823V18.586C140.363 19.0456 139.956 19.4226 139.438 19.7172C138.919 20 138.312 20.1414 137.617 20.1414C136.804 20.1414 136.068 19.9352 135.408 19.5228C134.748 19.0986 134.224 18.5035 133.835 17.7376C133.458 16.96 133.269 16.0644 133.269 15.0511C133.269 14.0378 133.458 13.1481 133.835 12.3822C134.224 11.6163 134.748 11.0272 135.408 10.6148C136.068 10.2024 136.804 9.99615 137.617 9.99615ZM140.657 15.0688C140.657 14.3147 140.445 13.7196 140.021 13.2836C139.608 12.8477 139.102 12.6297 138.501 12.6297C137.9 12.6297 137.387 12.8477 136.963 13.2836C136.551 13.7078 136.344 14.297 136.344 15.0511C136.344 15.8052 136.551 16.4062 136.963 16.8539C137.387 17.2899 137.9 17.5079 138.501 17.5079C139.102 17.5079 139.608 17.2899 140.021 16.8539C140.445 16.4179 140.657 15.8229 140.657 15.0688Z" fill="#5EB022"/>
</svg>
