
<svg width="9" height="14" viewBox="0 0 9 14" fill="none" xmlns="http://www.w3.org/2000/svg">
<path fill-rule="evenodd" clip-rule="evenodd" d="M6.77092 7.17279C6.51919 7.24697 6.28382 7.38604 6.08266 7.57772C5.88094 7.76995 5.77366 7.87332 5.57827 8.30484C5.38305 8.73635 5.27875 9.51181 5.43139 10.0432C5.68517 9.98608 5.93411 9.86747 6.15591 9.69029C6.37864 9.51255 6.51175 9.42312 6.72388 8.98269C6.93601 8.54244 6.99867 7.72626 6.77092 7.17279ZM2.61029 2.43043C2.04808 2.32074 1.51097 1.99241 1.13616 1.51107C0.761167 1.02992 0.622658 0.487973 0.731977 -5.81741e-05C1.3191 0.0458632 1.91664 0.321764 2.30446 0.824297C2.69228 1.32683 2.77539 1.92808 2.61029 2.43043ZM0.523193 2.81193C0.751313 2.67881 1.01513 2.59497 1.29475 2.57191C1.57474 2.54886 1.72589 2.52766 2.15963 2.70187C2.59337 2.87607 3.15893 3.41374 3.33574 3.96257C3.09944 4.08007 2.83321 4.1403 2.55749 4.14123C2.28252 4.14235 2.13751 4.14086 1.71771 3.96536C1.29809 3.79004 0.734952 3.30294 0.523193 2.81193ZM1.60504 4.55118C1.84209 4.4348 2.1072 4.36917 2.38199 4.36805C2.65826 4.36675 2.80681 4.35801 3.21136 4.57033C3.61573 4.78265 4.10934 5.37442 4.21996 5.945C3.97697 6.04614 3.71092 6.08741 3.44264 6.06789C3.17474 6.04855 3.03474 6.03591 2.6458 5.82564C2.25687 5.61555 1.75991 5.07268 1.60504 4.55118ZM2.47123 6.41444C2.71366 6.31218 2.97971 6.26738 3.24743 6.28671C3.51552 6.30642 3.66128 6.30865 4.02921 6.55239C4.39732 6.79631 4.80467 7.42768 4.84129 8.00774C4.59309 8.09326 4.32909 8.11743 4.07141 8.07988C3.81373 8.04232 3.6821 8.01964 3.33072 7.77944C2.97934 7.53905 2.5614 6.95545 2.47123 6.41444ZM3.08512 8.36098C3.33388 8.27528 3.59677 8.24757 3.85445 8.28513C4.11231 8.32268 4.25324 8.33663 4.57692 8.60546C4.9006 8.87411 5.20457 9.53058 5.15698 10.1108C4.90376 10.1778 4.64534 10.185 4.4016 10.1315C4.15823 10.0779 4.03609 10.0493 3.73156 9.78678C3.42721 9.52426 3.10055 8.91074 3.08512 8.36098ZM3.94016 0.918927C3.70571 1.042 3.50808 1.21993 3.364 1.43875C3.2201 1.6572 3.14201 1.7734 3.09386 2.20993C3.04571 2.64628 3.22921 3.3799 3.59528 3.84116C3.8379 3.73649 4.05022 3.57307 4.21271 3.36094C4.37539 3.149 4.47336 3.03615 4.53007 2.58437C4.58677 2.13259 4.36628 1.37163 3.94016 0.918927ZM5.13058 2.88667C4.88889 2.99357 4.67899 3.1609 4.51594 3.37321C4.35363 3.58479 4.26569 3.70005 4.17311 4.14198C4.08052 4.5839 4.18073 5.34542 4.48619 5.84126C4.73309 5.75127 4.95823 5.60124 5.13969 5.39896C5.3217 5.19612 5.42972 5.08755 5.5329 4.63243C5.63608 4.17749 5.49888 3.38288 5.13058 2.88667ZM6.08452 4.98455C5.83725 5.07621 5.61545 5.23145 5.43344 5.43484C5.25179 5.63786 5.15475 5.74699 5.01364 6.18743C4.87253 6.62768 4.8781 7.40426 5.11236 7.92241C5.36465 7.85064 5.60057 7.71455 5.80155 7.52343C6.00308 7.33193 6.12449 7.2334 6.2788 6.78143C6.4333 6.32947 6.38849 5.5159 6.08452 4.98455Z" fill="#F5BB2C"/>
<path fill-rule="evenodd" clip-rule="evenodd" d="M0 8.32457C1.83703 8.07833 4.12571 9.78985 4.52819 12.1349C3.41279 10.6855 2.1333 9.05951 0 8.32457Z" fill="#5EB022"/>
<path fill-rule="evenodd" clip-rule="evenodd" d="M7.84066 0.372589C10.1998 4.12195 8.75107 10.7969 4.05225 14C6.70352 10.7742 8.99589 6.40671 7.84066 0.372589Z" fill="#5EB022"/>
</svg>
